<?xml version="1.0" ?><svg enable-background="new 0 0 24 24" id="Layer_1" version="1.1" viewBox="0 0 24 24" xml:space="preserve" xmlns="http://www.w3.org/2000/svg" xmlns:xlink="http://www.w3.org/1999/xlink"><g><path d="M20.9774342,20.6484375c0.015625-0.0507812,0.0234375-0.1030273,0.0224609-0.1552734V0.5   c0-0.2763672-0.2236328-0.5-0.5-0.5h-15.5C3.8973567,0,2.9998958,0.8969727,2.9998958,2v20c0,1.1030273,0.8974609,2,1.9999998,2   h15.5c0.1845703,0,0.3535156-0.1015625,0.4404297-0.2641602c0.0878906-0.1625977,0.078125-0.3598633-0.0244141-0.5131836   c-0.4941406-0.7412109-0.4951172-1.6982422-0.0029297-2.4404297   C20.9403248,20.7416992,20.9627857,20.6967773,20.9774342,20.6484375z" fill="#303C42"/><path d="M19.7049732,23H4.9998956c-0.5517578,0-0.9999998-0.4487305-0.9999998-1s0.4482419-1,0.9999998-1   h14.7050781C19.4901295,21.6494141,19.4901295,22.3505859,19.7049732,23z" fill="#D7CCC8"/><path d="M5.2948174,22h14.2490234c0-0.3376465,0.0537109-0.675293,0.1611328-1H4.9998956   c-0.5517578,0-0.9999998,0.4487305-0.9999998,1c0,0.2989502,0.1382444,0.5595703,0.3469236,0.743042   C4.4626031,22.3190308,4.8342462,22,5.2948174,22z" opacity="0.1"/><path d="M19.9998951,20h-15c-0.3642578,0-0.7060547,0.0976562-0.9999998,0.2685547V2   c0-0.5512695,0.4482419-1,0.9999998-1h15V20z" fill="#546E7A"/><path d="M5.4998956,4.4399414c0-1.2197266,0.9887695-2.2084961,2.2084961-2.2084961h12.2915039V1h-15   C4.4481378,1,3.9998958,1.4487305,3.9998958,2v18.2685547C4.2938409,20.0976562,4.6356378,20,4.9998956,20h0.5V4.4399414z" fill="#FFFFFF" opacity="0.2"/><path d="M8.999896,10h1.5v5.5c0,0.2763672,0.2236328,0.5,0.5,0.5h2c0.2763672,0,0.5-0.2236328,0.5-0.5V10h1.5   c0.2763672,0,0.5-0.2236328,0.5-0.5v-2c0-0.2763672-0.2236328-0.5-0.5-0.5h-1.5V5.5c0-0.2763672-0.2236328-0.5-0.5-0.5h-2   c-0.2763672,0-0.5,0.2236328-0.5,0.5V7h-1.5c-0.2763672,0-0.5,0.2236328-0.5,0.5v2C8.499896,9.7763672,8.7235289,10,8.999896,10z" fill="#303C42"/><path d="M9.499896,8h1.5c0.2763672,0,0.5-0.2236328,0.5-0.5V6h1v1.5c0,0.2763672,0.2236328,0.5,0.5,0.5h1.5v1h-1.5   c-0.2763672,0-0.5,0.2236328-0.5,0.5V15h-1V9.5c0-0.2763672-0.2236328-0.5-0.5-0.5h-1.5V8z" fill="#D7CCC8"/><linearGradient gradientUnits="userSpaceOnUse" id="SVGID_1_" x1="0.7117195" x2="23.9437141" y1="6.4638658" y2="17.297123"><stop offset="0" style="stop-color:#FFFFFF;stop-opacity:0.2"/><stop offset="1" style="stop-color:#FFFFFF;stop-opacity:0"/></linearGradient><path d="M20.9774342,20.6484375c0.015625-0.0507812,0.0234375-0.1030273,0.0224609-0.1552734V0.5   c0-0.2763672-0.2236328-0.5-0.5-0.5h-15.5C3.8973567,0,2.9998958,0.8969727,2.9998958,2v20c0,1.1030273,0.8974609,2,1.9999998,2   h15.5c0.1845703,0,0.3535156-0.1015625,0.4404297-0.2641602c0.0878906-0.1625977,0.078125-0.3598633-0.0244141-0.5131836   c-0.4941406-0.7412109-0.4951172-1.6982422-0.0029297-2.4404297   C20.9403248,20.7416992,20.9627857,20.6967773,20.9774342,20.6484375z" fill="url(#SVGID_1_)"/></g><g/><g/><g/><g/><g/><g/><g/><g/><g/><g/><g/><g/><g/><g/><g/></svg>